<?xml version="1.0" encoding="utf-8"?>
<!-- Generator: Adobe Illustrator 25.3.1, SVG Export Plug-In . SVG Version: 6.00 Build 0)  -->
<svg version="1.1" id="レイヤー_1" xmlns="http://www.w3.org/2000/svg" xmlns:xlink="http://www.w3.org/1999/xlink" x="0px"
	 y="0px" viewBox="0 0 683 166" style="enable-background:new 0 0 683 166;" xml:space="preserve">
<style type="text/css">
	.st0{fill:#42B04D;}
	.st1{fill:#F5D85E;}
	.st2{fill:#FFFFFF;}
	.st3{fill:#EB6860;}
</style>
<g>
	<g>
		<path class="st0" d="M83.95,21.82L83.95,21.82c7.98,7.98,12.92,19,12.92,31.18c0-10.09,8.18-18.26,18.27-18.26
			c10.09,0,18.27,8.18,18.27,18.27s-8.18,18.27-18.27,18.27c-10.09,0-18.26-8.18-18.27-18.26c0,12.18-4.94,23.2-12.92,31.18v0h62.36
			V21.82H83.95z M21.59,84.19v41.57c0,11.48,9.31,20.79,20.79,20.79h10.39V97.1C40.59,97.1,29.57,92.17,21.59,84.19L21.59,84.19z
			 M146.31,84.19v62.36h41.57c5.74,0,10.94-2.33,14.7-6.09L146.31,84.19z"/>
		<path class="st1" d="M146.31,146.55V84.19l-62.36,62.36H146.31z M42.38,21.82c-11.48,0-20.79,9.31-20.79,20.79v41.57l62.36-62.36
			H42.38z M146.31,84.19l56.27,56.27c3.76-3.76,6.09-8.96,6.09-14.7V84.19H146.31z"/>
		<path class="st2" d="M115.13,34.74c-10.09,0-18.27,8.18-18.27,18.27s8.18,18.27,18.27,18.27c10.09,0,18.27-8.18,18.27-18.27
			S125.22,34.74,115.13,34.74z M52.77,97.1v49.45h31.18V84.19h0C75.97,92.17,64.95,97.1,52.77,97.1z M167.1,84.19h20.79V63.4H167.1
			V84.19z M187.89,42.61V63.4h20.79V42.61H187.89z M187.89,21.82H167.1v20.79h20.79V21.82z M146.31,42.61V63.4h20.79V42.61H146.31z"
			/>
		<path class="st3" d="M187.89,84.19h20.79V63.4h-20.79V84.19z M83.95,21.82L21.59,84.19c7.98,7.98,19,12.92,31.18,12.92
			c24.35,0,44.1-19.74,44.1-44.1C96.87,40.83,91.93,29.8,83.95,21.82z M83.95,146.55l62.36-62.36H83.95V146.55z M167.1,42.61V63.4
			h20.79V42.61H167.1z M187.92,21.82h-0.03v20.79h20.79v0C208.68,31.14,199.39,21.84,187.92,21.82z M146.31,21.82v20.79h20.79V21.82
			H146.31z M146.31,84.19L146.31,84.19l20.79,0V63.4h-20.79V84.19z"/>
	</g>
	<g>
		<path class="st3" d="M399.98,132.04l-10.09-12.94c-0.45-0.58-1.12-0.88-1.8-0.88v0c-1.29,0-2.33,1.04-2.33,2.33v19.91h4.67v-13.27
			l10.09,12.94c0.45,0.58,1.12,0.88,1.8,0.88v0h0c1.29,0,2.33-1.04,2.33-2.33v-19.91h-4.67V132.04z M430.94,121.57
			c-1.05-1.05-2.26-1.87-3.62-2.44c-1.41-0.59-2.9-0.9-4.44-0.9c-1.54,0-3.03,0.3-4.44,0.9c-1.36,0.57-2.58,1.4-3.62,2.44
			c-1.05,1.05-1.87,2.26-2.44,3.62c-0.59,1.41-0.9,2.9-0.9,4.44c0,1.54,0.3,3.03,0.9,4.44c0.57,1.36,1.4,2.58,2.44,3.62
			c1.05,1.05,2.26,1.87,3.62,2.44c1.41,0.59,2.9,0.9,4.44,0.9s3.03-0.3,4.44-0.9c1.36-0.57,2.58-1.4,3.62-2.44
			c1.05-1.05,1.87-2.26,2.44-3.62c0.59-1.41,0.9-2.9,0.9-4.44c0-1.54-0.3-3.03-0.9-4.44C432.8,123.83,431.98,122.61,430.94,121.57z
			 M422.88,136.35c-3.53,0-6.4-3.02-6.4-6.73c0-3.71,2.87-6.73,6.4-6.73c3.53,0,6.4,3.02,6.4,6.73
			C429.28,133.34,426.41,136.35,422.88,136.35z M473.95,121.09l-3.41-2.86l-8.13,9.71c-0.7,0.84-0.69,2.07,0.03,2.89l8.93,10.19
			l3.49-3.06l-7.69-8.77L473.95,121.09z M455.99,140.48h4.67v-21.71h-4.67V140.48z M293.79,118.23c-0.89,0-1.7,0.5-2.11,1.29
			l-9.82,19.36l4.21,2.14l7.71-15.21l3.01,5.94l-6.51,4.22l2.54,3.92l6.1-3.95l2.58,5.09l4.21-2.14l-9.82-19.36
			C295.49,118.73,294.68,118.23,293.79,118.23z M352.03,118.23c-0.89,0-1.7,0.5-2.11,1.29l-9.82,19.36l4.21,2.14l7.71-15.21
			l3.01,5.94l-6.51,4.22l2.54,3.92l6.1-3.95l2.58,5.09l4.21-2.14l-9.82-19.36C353.74,118.73,352.92,118.23,352.03,118.23z
			 M331.7,118.23L331.7,118.23c-0.74,0-1.45,0.37-1.87,1.01l-6.92,10.67h0l-6.92-10.67c-0.42-0.65-1.13-1.01-1.87-1.01v0
			c-1.29,0-2.33,1.04-2.33,2.33v19.91h4.67v-12.34l4.59,7.07c0.41,0.63,1.11,1.01,1.87,1.01h0c0.75,0,1.46-0.38,1.87-1.01l4.59-7.07
			v12.34h4.67v-19.91C334.03,119.28,332.99,118.23,331.7,118.23z M273.45,118.23L273.45,118.23c-0.74,0-1.45,0.37-1.87,1.01
			l-6.92,10.67h0l-6.92-10.67c-0.42-0.65-1.13-1.01-1.87-1.01v0c-1.29,0-2.33,1.04-2.33,2.33v19.91h4.67v-12.34l4.59,7.07
			c0.41,0.63,1.11,1.01,1.87,1.01h0c0.75,0,1.46-0.38,1.87-1.01l4.59-7.07v12.34h4.67v-19.91
			C275.79,119.28,274.74,118.23,273.45,118.23z M608.87,140.48h4.67v-21.71h-4.67V140.48z M488.67,128.47l-6.56-10.23l-3.79,2.43
			l7.91,12.34v7.48h4.88V133l7.91-12.34l-3.79-2.43L488.67,128.47z M647.53,118.77v13.13c0,2.45-2,4.45-4.45,4.45s-4.45-2-4.45-4.45
			v-13.13h-4.67v13.13c0,2.44,0.95,4.72,2.67,6.45c1.72,1.72,4.01,2.67,6.45,2.67c2.44,0,4.72-0.95,6.45-2.67
			c1.72-1.72,2.67-4.01,2.67-6.45v-13.13H647.53z M598.7,121.57c-1.05-1.05-2.26-1.87-3.62-2.44c-1.41-0.59-2.9-0.9-4.44-0.9
			s-3.03,0.3-4.44,0.9c-1.36,0.57-2.58,1.4-3.62,2.44c-1.05,1.05-1.87,2.26-2.44,3.62c-0.59,1.41-0.9,2.9-0.9,4.44
			c0,1.54,0.3,3.03,0.9,4.44c0.57,1.36,1.4,2.58,2.44,3.62c1.05,1.05,2.26,1.87,3.62,2.44c1.41,0.59,2.9,0.9,4.44,0.9
			s3.03-0.3,4.44-0.9c1.36-0.57,2.58-1.4,3.62-2.44c1.05-1.05,1.87-2.26,2.44-3.62c0.59-1.41,0.9-2.9,0.9-4.44
			c0-1.54-0.3-3.03-0.9-4.44C600.56,123.83,599.74,122.61,598.7,121.57z M590.64,136.35c-3.53,0-6.4-3.02-6.4-6.73
			c0-3.71,2.87-6.73,6.4-6.73s6.4,3.02,6.4,6.73C597.04,133.34,594.17,136.35,590.64,136.35z M626.82,121.09l-3.41-2.86l-8.13,9.71
			c-0.7,0.84-0.69,2.07,0.03,2.89l8.93,10.19l3.49-3.06l-7.69-8.77L626.82,121.09z M518.44,131.91c0,2.45-2,4.45-4.45,4.45
			c-2.45,0-4.45-2-4.45-4.45v-13.13h-4.67v13.13c0,2.44,0.95,4.72,2.67,6.45c1.72,1.72,4.01,2.67,6.45,2.67
			c2.44,0,4.72-0.95,6.45-2.67c1.72-1.72,2.67-4.01,2.67-6.45v-13.13h-4.67V131.91z M567.74,127.27h-8.9v-8.49h-4.67v21.71h4.67
			v-8.71h8.9v8.71h4.67v-21.71h-4.67V127.27z M540.37,127.76c-4.41-1.97-5.44-2.84-5.34-3.85c0.1-0.89,1.14-1.47,2.97-1.47
			c1.72,0,3.93,0.69,6,1.77l1.84-3.68c-2.59-1.5-5.21-2.3-7.78-2.3c-4.86,0-7.35,2.55-7.79,5.29c-0.41,2.59,0.91,5.24,5.65,7.38
			c5.18,2.34,6.04,3.09,6.09,4.12c0.05,0.94-1.1,1.79-3.04,1.79c-2.01,0-4.88-1.16-7.49-2.72l-1.9,3.73
			c3.45,2.28,6.64,3.21,9.49,3.21c4.55,0,7.84-2.65,7.84-6.4C546.92,131.89,545.12,129.88,540.37,127.76z"/>
		<path class="st3" d="M388.87,32.57h-59.75v13.09h47.26l-16,23.24l-12.71-13.07l-9.48,9.22l31.17,32.06l9.48-9.22l-9.06-9.32
			L394.27,43c0.76-1.08,1.21-2.4,1.21-3.82C395.48,35.53,392.52,32.57,388.87,32.57z M309.53,32.57h-59.75v13.09h47.26l-16,23.24
			l-12.71-13.07l-9.48,9.22l31.17,32.06l9.48-9.22l-9.06-9.32L314.93,43c0.76-1.08,1.21-2.4,1.21-3.82
			C316.14,35.53,313.18,32.57,309.53,32.57z M639.49,89.11l10.55-7.66l-5.21-7.17l-5.81,4.22V55.08l10.75,7.8l6.18-8.52
			l-35.72-25.93c-1.84-1.34-4.34-1.34-6.18,0l-35.72,25.93l6.18,8.52l10.75-7.8v34.18h-11.18v9.42h31.85v-9.42h-10.28v-8.62h3.73
			l4.71,4.43c5.72,5.38,10.25,8.7,14.71,10.76c2.27,1.05,4.55,1.79,6.96,2.25c2.13,0.4,4.44,0.6,7.06,0.6h9.81v-9.42h-9.81
			C641.62,89.26,640.52,89.21,639.49,89.11z M602.79,49.62l14.36-10.42l14.36,10.42h-9.16v-5.54h-10.39v5.54H602.79z M628.64,57.37
			v4.15h-22.99v-4.15H628.64z M605.65,72.88v-4.15h22.99v4.15H605.65z M629.45,85.45c-1.9-1.22-3.96-2.81-6.24-4.81l12.87,0
			L629.45,85.45z M457.71,46.75c-2.65-2.49-5.74-4.45-9.16-5.81c-3.53-1.4-7.27-2.12-11.13-2.12c-3.85,0-7.6,0.71-11.13,2.12
			c-3.43,1.36-6.51,3.32-9.16,5.81c-2.68,2.52-4.78,5.46-6.26,8.74c-1.54,3.43-2.32,7.07-2.32,10.82c0,3.75,0.78,7.39,2.32,10.82
			c1.48,3.28,3.58,6.22,6.26,8.74c0.89,0.83,1.82,1.61,2.8,2.32l0,0c0.98,0.68,2.1,1,3.21,1c1.81,0,3.58-0.86,4.68-2.46l21.74-31.57
			c2.9,2.86,4.72,6.73,4.72,11.02c0,6.47-4.62,12.85-11.04,18.53l8.95,8.52c7.88-7.02,14.17-15.14,14.17-26.92
			c0-3.75-0.85-7.39-2.39-10.82C462.49,52.21,460.39,49.27,457.71,46.75z M422.39,74.59c-1.58-2.42-2.49-5.25-2.49-8.28
			c0-8.9,7.86-16.13,17.52-16.13c0.58,0,1.15,0.03,1.72,0.09L422.39,74.59z M564.95,53.41V42.47h-18.82V28.82h-11.77v13.65h-18.82
			v10.94h17.94l-22.6,32.83l9.18,6.32l14.3-20.77v26.89h11.77V71.79l14.3,20.77l9.18-6.32l-22.6-32.83H564.95z M519.52,34.03
			l-9.7-6.68l-25.66,37.27c-0.68,0.96-1.08,2.13-1.08,3.39c0,3.25,2.64,5.89,5.89,5.89h8.93v24.77h11.77V63.51l-10.46,0
			L519.52,34.03z"/>
	</g>
</g>
</svg>
